<?xml version="1.0" encoding="UTF-8" standalone="no"?>
<!-- Created with Inkscape (http://www.inkscape.org/) -->

<svg
   xmlns:dc="http://purl.org/dc/elements/1.1/"
   xmlns:cc="http://creativecommons.org/ns#"
   xmlns:rdf="http://www.w3.org/1999/02/22-rdf-syntax-ns#"
   xmlns:svg="http://www.w3.org/2000/svg"
   xmlns="http://www.w3.org/2000/svg"
   xmlns:xlink="http://www.w3.org/1999/xlink"
   xmlns:sodipodi="http://sodipodi.sourceforge.net/DTD/sodipodi-0.dtd"
   xmlns:inkscape="http://www.inkscape.org/namespaces/inkscape"
   version="1.0"
   width="200.5457"
   height="185.58849"
   id="svg1337"
   sodipodi:version="0.32"
   inkscape:version="0.48.0 r9654"
   sodipodi:docname="Flag_of_EAC.svg">
  <metadata
     id="metadata1369">
    <rdf:RDF>
      <cc:Work
         rdf:about="">
        <dc:format>image/svg+xml</dc:format>
        <dc:type
           rdf:resource="http://purl.org/dc/dcmitype/StillImage" />
        <dc:title></dc:title>
      </cc:Work>
    </rdf:RDF>
  </metadata>
  <sodipodi:namedview
     inkscape:window-height="538"
     inkscape:window-width="1024"
     inkscape:pageshadow="2"
     inkscape:pageopacity="0.0"
     borderopacity="1.0"
     bordercolor="#666666"
     pagecolor="#ffffff"
     id="base"
     inkscape:zoom="1"
     inkscape:cx="99.859375"
     inkscape:cy="104.14529"
     inkscape:window-x="-8"
     inkscape:window-y="-8"
     inkscape:current-layer="svg1337"
     showgrid="false"
     inkscape:window-maximized="1"
     fit-margin-top="0"
     fit-margin-left="0"
     fit-margin-right="0"
     fit-margin-bottom="0" />
  <defs
     id="defs1340" />
  <use
     transform="matrix(1.7042095,0,0,1.7042095,-410.98671,-407.72501)"
     id="use4024"
     x="0"
     y="0"
     width="600"
     height="330"
     xlink:href="#rect2276" />
  <g
     transform="matrix(0.79374923,0,0,0.79374923,-62.185291,220.95994)"
     id="g26596">
    <path
       d="m 204.69207,-277.11606 c -55.73831,0 -101.00001,45.2617 -101,101 0,27.80694 11.26409,52.98327 29.46875,71.25 l -43.249999,13.812505 3.96875,9.9375 -13.9375,2.96875 9.96875,32.343744 229.562499,0 9.9375,-32.343744 -13.9375,-2.96875 4,-9.9375 -43.28125,-13.812505 c 18.20466,-18.26673 29.46875,-43.44305 29.46875,-71.25 0,-55.73831 -45.23044,-101.00001 -100.96875,-101 z"
       style="fill:#ffffff;fill-opacity:1;fill-rule:nonzero;stroke:#000000;stroke-width:2.5;stroke-miterlimit:4;stroke-opacity:1"
       id="path4073"
       inkscape:connector-curvature="0" />
    <g
       transform="translate(40.09434,52.08286)"
       id="g12864">
      <path
         d="m 52.112361,-129.62748 8.769921,28.45415 207.427148,0 8.74241,-28.45415 -224.939479,0 z"
         style="fill:#008300;fill-opacity:1;fill-rule:nonzero;stroke:none"
         id="path6707"
         inkscape:connector-curvature="0" />
      <path
         d="m 57.582105,-125.9629 6.5,21.125 51.218745,0 98.5625,0 51.21875,0 6.5,-21.125 -51.25,0 -111.53125,0 -51.218745,0 z"
         style="fill:#ffffff;fill-opacity:1;fill-rule:nonzero;stroke:none"
         id="path8461"
         inkscape:connector-curvature="0" />
      <text
         x="67.162666"
         y="-104.85967"
         transform="scale(0.945059,1.058135)"
         style="font-size:12.69762516px;font-style:normal;font-variant:normal;font-weight:bold;font-stretch:normal;text-align:start;line-height:125%;writing-mode:lr-tb;text-anchor:start;fill:#000000;fill-opacity:1;stroke:none;font-family:Times New Roman"
         id="text8463"
         xml:space="preserve"
         sodipodi:linespacing="125%"><tspan
           x="67.162666"
           y="-104.85967"
           id="tspan8465">JUMUIYA YA AFRIKA MASHARIKI</tspan></text>
      <g
         id="g12852">
        <path
           d="m 52.112361,-129.61707 13.128358,-3.51773 -4.147089,-7.18297 22.630045,-8.46833 0,7.69399 6.990541,0 0,11.82677 -38.074267,0 -0.527588,-0.35173 z"
           style="fill:#008300;fill-opacity:1;fill-rule:evenodd;stroke:none"
           id="path9350"
           inkscape:connector-curvature="0" />
        <path
           d="m 87.403744,-129.44121 -27.522507,0 27.522507,-7.3813 0,7.3813 z"
           style="fill:#ffffff;fill-opacity:1;fill-rule:evenodd;stroke:none"
           id="path10225"
           inkscape:connector-curvature="0" />
        <path
           d="m 81.424414,-140.96022 -12.486249,0 12.486249,-4.83622 0,4.83622 z"
           style="fill:#ffffff;fill-opacity:1;fill-rule:evenodd;stroke:none"
           id="path11102"
           inkscape:connector-curvature="0" />
        <path
           d="m 65.157118,-138.84986 2.816845,4.97316 18.315615,-4.97316 -21.13246,0 z"
           style="fill:#ffffff;fill-opacity:1;fill-rule:evenodd;stroke:none"
           id="path11977"
           inkscape:connector-curvature="0" />
      </g>
      <use
         transform="matrix(-1,0,0,1,329.1642,0)"
         id="use12858"
         x="0"
         y="0"
         width="600"
         height="330"
         xlink:href="#g12852" />
    </g>
    <path
       d="m 202.3952,-265.10905 c -48.2542,1.22047 -87.06249,40.79736 -87.0625,89.34375 0,37.91356 23.65064,70.32343 57,83.281251 l 0,-9.875001 c -28.1739,-12.43977 -47.84375,-40.64347 -47.84375,-73.40625 1e-5,-44.0938 35.62777,-79.93959 79.65625,-80.21875 0.17266,-0.001 0.35833,0 0.53125,0 44.26673,-1e-5 80.1875,35.95203 80.1875,80.21875 1e-5,32.76278 -19.66984,60.96648 -47.84375,73.40625 l 0,9.875001 c 33.34936,-12.957811 56.99998,-45.367681 57,-83.281251 0,-49.31468 -40.02906,-89.34376 -89.34375,-89.34375 -0.57791,0 -1.14344,-0.0109 -1.71875,0 -0.18952,0.004 -0.37327,-0.005 -0.5625,0 z"
       style="fill:#ffff00;fill-opacity:1;fill-rule:nonzero;stroke:#000000;stroke-width:1.5;stroke-miterlimit:4;stroke-opacity:1;stroke-dasharray:none"
       id="path12876"
       inkscape:connector-curvature="0" />
    <g
       transform="translate(-481.3117,7.461225)"
       id="g14644">
      <path
         d="m 710.62382,-118.65631 c 0,0 0.13223,13.22371 0.13223,13.22371 -8.06645,1.19013 -17.05859,9.653315 -19.43885,11.240161 -2.38027,1.586845 -6.43489,4.711457 -8.55111,4.450395 -3.56788,-0.440141 -0.93133,-3.325899 -0.93133,-3.325899 0,0 -2.46447,2.89604 -4.36684,1.590287 -1.68802,-1.158625 1.0231,-3.459314 1.0231,-3.459314 0,0 -0.89471,1.234612 -2.76099,0.734404 -1.74607,-0.467985 -0.48345,-2.647303 -0.48345,-2.647303 0,0 -4.89006,2.564127 -5.61356,1.731772 -1.43598,-1.652049 0.35173,-3.172327 0.35173,-3.172327 0,0 11.28243,-9.522436 11.28243,-9.522436 0,0 -7.29279,2.73235 0,0 6.28235,-2.35377 7.93422,0.92565 10.84344,0.79342 2.90922,-0.13225 10.71121,-4.36383 12.827,-6.47962 2.1158,-2.1158 1.58684,-4.36382 3.1737,-4.89278 1.58684,-0.52894 2.38026,-0.39671 2.5125,-0.26447 z"
         style="fill:#ffffff;fill-opacity:1;fill-rule:evenodd;stroke:#000000;stroke-width:1.06339526px;stroke-linecap:butt;stroke-linejoin:miter;stroke-opacity:1"
         id="path14638"
         inkscape:connector-curvature="0" />
      <path
         d="m 661.31288,-117.81575 c 0,0 -0.12435,12.43537 -0.12435,12.43537 7.58557,1.11918 16.04163,9.077823 18.27999,10.570067 2.23837,1.492244 5.96858,3.851755 7.95864,3.606257 3.35518,-0.413902 2.68043,-1.641246 2.68043,-1.641246 0,0 1.48761,0.743764 3.45953,0.0091 1.98071,-0.73793 1.00744,-2.140566 1.00744,-2.140566 0,0 2.93241,0.861443 4.29314,-0.704025 1.35038,-1.553563 -1.14311,-3.102592 -1.14311,-3.102592 0,0 1.11035,-0.767458 -0.87931,0.351725 -1.98966,1.119183 -6.06057,-3.59117 -10.16424,-3.71552 -4.10368,-0.12436 -4.47674,3.979314 -7.08816,1.98966 -2.61143,-1.98966 2.15421,-5.20303 3.73061,-5.72027 6.49678,-2.13169 12.47759,0.50741 4.62867,-2.4444 -4.01701,-1.5885 -7.1095,1.31013 -9.84528,1.18578 -2.73578,-0.12436 -9.45713,-3.83988 -11.44679,-5.82954 -1.98966,-1.98966 -1.49224,-4.10367 -2.98449,-4.60109 -1.49224,-0.49741 -2.23836,-0.37306 -2.36272,-0.24871 z"
         style="fill:#ffffff;fill-opacity:1;fill-rule:evenodd;stroke:#000000;stroke-width:1px;stroke-linecap:butt;stroke-linejoin:miter;stroke-opacity:1"
         id="path14632"
         inkscape:connector-curvature="0" />
      <path
         d="m 694.70149,-95.016094 -5.36381,-2.330181"
         style="fill:none;stroke:#000000;stroke-width:1px;stroke-linecap:butt;stroke-linejoin:miter;stroke-opacity:1"
         id="path14640"
         inkscape:connector-curvature="0" />
      <path
         d="m 690.65665,-92.554018 -6.33106,-3.912944"
         style="fill:none;stroke:#000000;stroke-width:1px;stroke-linecap:butt;stroke-linejoin:miter;stroke-opacity:1"
         id="path14642"
         inkscape:connector-curvature="0" />
    </g>
    <g
       transform="matrix(0.966234,0,0,0.966234,-257.1699,-11.76866)"
       style="stroke:#000000;stroke-width:0.51747298;stroke-miterlimit:4;stroke-opacity:1;stroke-dasharray:none"
       id="g17313">
      <path
         d="m 441.65962,-108.67267 c -16.12179,7.87383 -16.87642,-12.69816 -24.32133,-12.53044 13.73974,-9.09975 11.57711,7.85751 24.32133,12.53044 z"
         style="fill:#008300;fill-opacity:1;fill-rule:evenodd;stroke:#000000;stroke-width:0.51747298;stroke-linecap:butt;stroke-linejoin:miter;stroke-miterlimit:4;stroke-opacity:1;stroke-dasharray:none"
         id="path14650"
         inkscape:connector-curvature="0" />
      <path
         d="m 435.33482,-131.30066 c -8.22857,14.84658 10.78838,16.807 10.20204,23.87263 9.22655,-12.50855 -6.61012,-11.47792 -10.20204,-23.87263 z"
         style="fill:#008300;fill-opacity:1;fill-rule:evenodd;stroke:#000000;stroke-width:0.51747298;stroke-linecap:butt;stroke-linejoin:miter;stroke-miterlimit:4;stroke-opacity:1;stroke-dasharray:none"
         id="path14652"
         inkscape:connector-curvature="0" />
      <path
         d="m 427.45208,-125.65682 c -19.83671,3.48006 -14.48908,-13.80298 -22.708,-15.34355 17.55437,-5.13427 9.98526,8.20495 22.708,15.34355 z"
         style="fill:#008300;fill-opacity:1;fill-rule:evenodd;stroke:#000000;stroke-width:0.51747298;stroke-linecap:butt;stroke-linejoin:miter;stroke-miterlimit:4;stroke-opacity:1;stroke-dasharray:none"
         id="path15527"
         inkscape:connector-curvature="0" />
      <path
         d="m 425.44251,-146.1142 c -10.94264,12.97647 4.84988,13.60093 2.90912,20.42004 11.46996,-10.48965 -0.28802,-10.0519 -2.90912,-20.42004 z"
         style="fill:#008300;fill-opacity:1;fill-rule:evenodd;stroke:#000000;stroke-width:0.51747298;stroke-linecap:butt;stroke-linejoin:miter;stroke-miterlimit:4;stroke-opacity:1;stroke-dasharray:none"
         id="path15529"
         inkscape:connector-curvature="0" />
      <path
         d="m 413.90983,-143.69293 c -19.80636,-2.89735 -7.31187,-23.10787 -13.30137,-27.53288 16.43495,1.21587 5.83625,19.02063 13.30137,27.53288 z"
         style="fill:#008300;fill-opacity:1;fill-rule:evenodd;stroke:#000000;stroke-width:0.51747298;stroke-linecap:butt;stroke-linejoin:miter;stroke-miterlimit:4;stroke-opacity:1;stroke-dasharray:none"
         id="path16414"
         inkscape:connector-curvature="0" />
      <path
         d="m 421.51758,-169.18782 c -18.33106,8.69174 0.2313,17.90438 -7.04485,26.11684 17.93759,-1.00921 2.04854,-12.87367 7.04485,-26.11684 z"
         style="fill:#008300;fill-opacity:1;fill-rule:evenodd;stroke:#000000;stroke-width:0.51747298;stroke-linecap:butt;stroke-linejoin:miter;stroke-miterlimit:4;stroke-opacity:1;stroke-dasharray:none"
         id="path16416"
         inkscape:connector-curvature="0" />
      <path
         d="m 411.33209,-168.55597 c -21.29757,-9.88932 0.97247,-27.99154 -2.84232,-34.73858 14.53659,14.64533 -7.5731,20.31051 2.84232,34.73858 z"
         style="fill:#008300;fill-opacity:1;fill-rule:evenodd;stroke:#000000;stroke-width:0.51747298;stroke-linecap:butt;stroke-linejoin:miter;stroke-miterlimit:4;stroke-opacity:1;stroke-dasharray:none"
         id="path16418"
         inkscape:connector-curvature="0" />
      <path
         d="m 425.00249,-193.17472 c -18.33744,2.31832 -9.21679,19.19507 -12.93625,25.13991 14.24753,-3.26232 2.69264,-11.85514 12.93625,-25.13991 z"
         style="fill:#008300;fill-opacity:1;fill-rule:evenodd;stroke:#000000;stroke-width:0.51747298;stroke-linecap:butt;stroke-linejoin:miter;stroke-miterlimit:4;stroke-opacity:1;stroke-dasharray:none"
         id="path16420"
         inkscape:connector-curvature="0" />
      <path
         d="m 416.14033,-198.29239 c -10.47495,-15.71275 6.7307,-19.31698 8.00414,-27.31341 5.01076,20.73644 -6.73737,13.91817 -8.00414,27.31341 z"
         style="fill:#008300;fill-opacity:1;fill-rule:evenodd;stroke:#000000;stroke-width:0.51747298;stroke-linecap:butt;stroke-linejoin:miter;stroke-miterlimit:4;stroke-opacity:1;stroke-dasharray:none"
         id="path16426"
         inkscape:connector-curvature="0" />
      <path
         d="m 436.80633,-211.38988 c -17.09087,-4.84542 -14.09584,12.24397 -19.80027,16.32256 14.41554,2.41393 11.48437,-11.4264 19.80027,-16.32256 z"
         style="fill:#008300;fill-opacity:1;fill-rule:evenodd;stroke:#000000;stroke-width:0.51747298;stroke-linecap:butt;stroke-linejoin:miter;stroke-miterlimit:4;stroke-opacity:1;stroke-dasharray:none"
         id="path16428"
         inkscape:connector-curvature="0" />
      <path
         d="m 428.8585,-218.79428 c -3.38158,-13.64242 3.42178,-11.34692 11.16762,-17.29045 4.21167,10.97972 -6.20313,9.72539 -11.16762,17.29045 z"
         style="fill:#008300;fill-opacity:1;fill-rule:evenodd;stroke:#000000;stroke-width:0.51747298;stroke-linecap:butt;stroke-linejoin:miter;stroke-miterlimit:4;stroke-opacity:1;stroke-dasharray:none"
         id="path16430"
         inkscape:connector-curvature="0" />
      <path
         d="m 450.58347,-220.79278 c -13.20656,-9.67741 -14.57363,3.36531 -21.36376,5.11734 12.58054,7.44077 13.08645,-3.54249 21.36376,-5.11734 z"
         style="fill:#008300;fill-opacity:1;fill-rule:evenodd;stroke:#000000;stroke-width:0.51747298;stroke-linecap:butt;stroke-linejoin:miter;stroke-miterlimit:4;stroke-opacity:1;stroke-dasharray:none"
         id="path16432"
         inkscape:connector-curvature="0" />
      <path
         d="m 442.69911,-227.35321 c 0.43524,-5.84462 8.20734,-13.67891 16.41469,-10.94312 -0.49741,9.69959 -9.88612,12.31101 -16.41469,10.94312 z"
         style="fill:#008300;fill-opacity:1;fill-rule:evenodd;stroke:#000000;stroke-width:0.51747298;stroke-linecap:butt;stroke-linejoin:miter;stroke-miterlimit:4;stroke-opacity:1;stroke-dasharray:none"
         id="path16434"
         inkscape:connector-curvature="0" />
    </g>
    <use
       transform="matrix(-1,0,0,1,409.3529,1.089572e-7)"
       id="use17328"
       x="0"
       y="0"
       width="600"
       height="330"
       xlink:href="#g17313" />
    <g
       transform="matrix(1.027438,0,0,1.027438,-5.610148,-0.743311)"
       id="g18248">
      <path
         d="m 186.40617,-228.9698 c 0,0 9.04673,-2.30054 18.09346,-2.23837 9.04673,0.0622 18.09346,2.48707 18.09346,2.48707"
         style="fill:none;stroke:none"
         id="path17362"
         inkscape:connector-curvature="0" />
      <path
         transform="matrix(0.916721,0,0,0.916721,16.99979,-19.66735)"
         style="font-size:18px;font-style:normal;font-variant:normal;font-weight:normal;font-stretch:normal;text-align:start;line-height:125%;writing-mode:lr-tb;text-anchor:start;fill:#000000;fill-opacity:1;stroke:none;font-family:Times New Roman"
         d="m 188.17318,-240.87941 0.79379,4.64358 2.5817,-0.44133 c 0.66996,-0.11452 1.10029,-0.29211 1.29099,-0.53277 0.25491,-0.317 0.34243,-0.81346 0.26256,-1.48936 l 0.32054,-0.0548 0.69902,4.08912 -0.32055,0.0548 c -0.17861,-0.55796 -0.32216,-0.91088 -0.43065,-1.05878 -0.13853,-0.18437 -0.33606,-0.31407 -0.5926,-0.38911 -0.25655,-0.075 -0.63028,-0.0706 -1.1212,0.0133 l -2.58169,0.44133 0.66199,3.87254 c 0.0889,0.5198 0.16626,0.83351 0.23221,0.94112 0.065,0.10184 0.16112,0.17754 0.28849,0.2271 0.12637,0.0438 0.35127,0.038 0.67471,-0.0173 l 1.99258,-0.34062 c 0.66418,-0.11354 1.13854,-0.24218 1.42309,-0.38594 0.28452,-0.14374 0.5422,-0.37504 0.77303,-0.69389 0.29687,-0.41929 0.57131,-1.02201 0.82331,-1.80813 l 0.34654,-0.0592 -0.51009,3.11882 -9.05324,1.54762 -0.0548,-0.32055 0.41585,-0.0711 c 0.27722,-0.0474 0.52866,-0.15873 0.7543,-0.33402 0.16902,-0.12401 0.2695,-0.28385 0.30144,-0.47953 0.0377,-0.19666 0.008,-0.58089 -0.09,-1.15267 l -1.30473,-7.63245 c -0.12736,-0.74504 -0.28094,-1.19137 -0.46072,-1.33897 -0.24741,-0.19547 -0.6137,-0.25175 -1.09885,-0.16882 l -0.41584,0.0711 -0.0548,-0.32054 9.05324,-1.54762 0.5698,2.55082 -0.33787,0.0578 c -0.22694,-0.59725 -0.43524,-0.99855 -0.62489,-1.20392 -0.18389,-0.20633 -0.43058,-0.34546 -0.74009,-0.41739 -0.24584,-0.0471 -0.66042,-0.0208 -1.24375,0.0789 l -3.22278,0.55092 m 17.2729,5.67238 -4.6142,0.0238 -0.79887,1.88501 c -0.19682,0.46392 -0.29465,0.81013 -0.29346,1.03864 9.3e-4,0.18164 0.0867,0.34233 0.25737,0.48208 0.17647,0.13385 0.55192,0.21981 1.12635,0.25786 l 0.002,0.32519 -3.75288,0.0194 -0.002,-0.32519 c 0.49758,-0.0905 0.81926,-0.20639 0.96501,-0.34777 0.29737,-0.28278 0.62547,-0.85577 0.9843,-1.71897 l 4.14168,-9.83011 0.30761,-0.002 4.19958,9.89251 c 0.33808,0.79514 0.64252,1.31213 0.91329,1.55097 0.27659,0.23295 0.65813,0.36281 1.14461,0.3896 l 0.002,0.32519 -4.70209,0.0243 -0.002,-0.32519 c 0.47448,-0.0259 0.7934,-0.10664 0.95677,-0.24225 0.16922,-0.13564 0.25333,-0.30014 0.25234,-0.4935 -0.001,-0.2578 -0.12063,-0.66442 -0.35786,-1.21984 l -0.72955,-1.71013 m -0.24945,-0.64911 -2.04633,-4.8059 -2.04932,4.82705 4.09565,-0.0212 m 17.80968,-5.41472 -0.41815,4.03932 -0.26852,-0.0462 c -0.15249,-1.25691 -0.51558,-2.20521 -1.08928,-2.8449 -0.57373,-0.63968 -1.32544,-1.03946 -2.25515,-1.19935 -0.77958,-0.13405 -1.51834,-0.056 -2.21628,0.23423 -0.69697,0.28444 -1.30182,0.82847 -1.81457,1.6321 -0.50699,0.80463 -0.8712,1.85081 -1.09264,3.13854 -0.18272,1.06253 -0.17075,2.01288 0.0359,2.85104 0.20664,0.83816 0.61491,1.52371 1.22482,2.05666 0.61568,0.53394 1.36239,0.87638 2.24014,1.02732 0.76224,0.13108 1.46278,0.0851 2.10164,-0.138 0.63983,-0.22886 1.39252,-0.76828 2.25809,-1.61826 l 0.23873,0.21942 c -0.76876,0.94391 -1.58751,1.59088 -2.45626,1.9409 -0.86877,0.35001 -1.84308,0.43217 -2.92293,0.24648 -1.94605,-0.33465 -3.32909,-1.31566 -4.14914,-2.94302 -0.61219,-1.21111 -0.79317,-2.54427 -0.54293,-3.99948 0.20159,-1.17224 0.64953,-2.20402 1.34384,-3.09535 0.6943,-0.89131 1.5467,-1.52654 2.55722,-1.9057 1.01728,-0.38392 2.07162,-0.48204 3.16303,-0.29437 0.84886,0.14598 1.65043,0.49786 2.40471,1.05562 0.22068,0.16876 0.38299,0.26207 0.48695,0.27994 0.1559,0.0268 0.30104,-0.005 0.43541,-0.0946 0.17694,-0.13009 0.32101,-0.32827 0.43221,-0.59453 l 0.30316,0.0521"
         id="text17365"
         inkscape:connector-curvature="0" />
    </g>
    <path
       d="m 201.75443,-227.54503 c -1.23733,0.0938 -2.4894,0.28885 -3.69725,0.44725 -1.32943,2.82775 -4.53808,5.63271 -8.79589,7.36469 -0.26611,0.10824 -0.5608,0.1984 -0.83486,0.29816 -4.62274,1.68255 -9.18042,1.71868 -12.19498,0.3578 -3.53102,2.31664 -6.76723,5.05914 -9.63075,8.13992 6e-5,0.007 5e-5,0.0286 0,0.0298 0.7703,3.01557 0.10403,7.20898 -2.02752,11.24085 -0.13427,0.25397 -0.27163,0.49283 -0.41743,0.74541 -2.47133,4.28047 -5.9874,7.26016 -9.18351,8.13992 -0.007,6e-5 -0.028,1.8e-4 -0.0298,0 -1.23446,4.03806 -1.9718,8.2817 -2.17661,12.67204 2.53865,1.80912 4.70336,5.45614 5.66515,9.92892 0.0604,0.28085 0.12827,0.54766 0.1789,0.83486 0.85424,4.84469 0.0747,9.37308 -1.789,12.10552 1.66294,3.9217 3.78822,7.58614 6.32111,10.94268 0.003,-1.2e-4 0.0265,5.1e-4 0.0298,0 3.08982,-0.1997 7.05107,1.16513 10.6147,3.93579 0.22679,0.17633 0.43255,0.37906 0.65596,0.56651 3.7685,3.16215 6.08185,7.11485 6.41056,10.40598 3.80678,1.96976 7.88346,3.4892 12.16516,4.47249 2.21639,-2.20254 6.20023,-3.73469 10.79359,-3.90597 0.28709,-0.0107 0.57303,0 0.86468,0 4.95814,0 9.30335,1.56578 11.65828,3.90597 4.28355,-0.984 8.35461,-2.50141 12.16516,-4.47249 0.30753,-3.09716 2.37258,-6.8096 5.75459,-9.86928 0.21305,-0.19274 0.43255,-0.37904 0.65597,-0.56651 3.72891,-3.12894 7.9865,-4.70926 11.27066,-4.5023 0.007,-1e-4 0.0282,-3.1e-4 0.0298,0 2.4843,-3.29466 4.57977,-6.89642 6.23166,-10.73397 -1.72645,-2.57476 -2.49757,-6.69903 -1.87845,-11.18121 0.0393,-0.28459 0.0984,-0.54764 0.14909,-0.83486 0.86097,-4.88282 3.1603,-8.91062 5.87386,-10.82341 -0.19466,-4.38761 -0.92928,-8.63247 -2.14679,-12.67204 -2.99673,-0.84069 -6.28052,-3.50279 -8.70644,-7.36469 -0.15281,-0.24328 -0.2716,-0.52266 -0.41743,-0.77523 -2.47908,-4.29389 -3.29415,-8.83637 -2.44496,-12.0459 -2.97472,-3.22923 -6.34634,-6.10583 -10.04818,-8.49772 -2.83605,1.31166 -7.10444,1.38026 -11.47938,-0.0298 -0.27343,-0.0881 -0.53101,-0.19842 -0.80504,-0.29817 -4.62275,-1.68253 -8.16639,-4.5932 -9.60094,-7.57341 -2.05304,-0.24692 -4.14226,-0.38761 -6.26148,-0.38761 -0.33616,0 -0.6791,-0.006 -1.01376,0 -0.17143,0.003 -0.33586,-0.005 -0.50688,0 -0.11909,0.003 -0.23891,-0.005 -0.3578,0 -0.10001,0.004 -0.19831,-0.005 -0.29816,0 -0.0936,0.004 -0.17487,-0.005 -0.26835,0 -0.005,3e-4 -0.0247,-1.1e-4 -0.0298,0 -0.0196,-1.9e-4 -0.04,1.3e-4 -0.0596,0 -0.006,-6e-5 -0.0271,-1.6e-4 -0.0298,0 -0.003,1.6e-4 -0.0237,6e-5 -0.0298,0 -0.0197,-1.9e-4 -0.0399,1.4e-4 -0.0596,0 -0.006,-6e-5 -0.0272,-1.7e-4 -0.0298,0 -0.005,3.4e-4 -0.0248,-1.1e-4 -0.0298,0 -0.0198,-2e-4 -0.0398,1.5e-4 -0.0596,0 -0.005,1.3e-4 -0.0247,-3.6e-4 -0.0298,0 -0.0399,0.003 -0.0794,-0.003 -0.11927,0 z m -3.93579,0.44725 c -7e-5,0.007 -2.2e-4,0.0281 0,0.0298 0.003,6e-5 0.0266,-1.4e-4 0.0298,0 -6e-5,-0.003 2.1e-4,-0.0262 0,-0.0298 -0.003,-6e-5 -0.0265,2e-4 -0.0298,0 z m 13.95416,102.9864 c -9.4e-4,0.002 9.9e-4,0.0282 0,0.0298 0.004,-9.8e-4 0.0262,0.001 0.0298,0 0.002,-7.8e-4 -0.002,-0.029 0,-0.0298 -9.9e-4,0.002 -0.0289,-0.002 -0.0298,0 z"
       style="fill:#ff0000;fill-opacity:1;fill-rule:nonzero;stroke:none"
       id="path18254"
       inkscape:connector-curvature="0" />
    <path
       d="m 249.05635,-175.81448 c 0,24.4977 -19.88221,44.3799 -44.3799,44.3799 -24.49769,0 -44.37989,-19.8822 -44.37989,-44.3799 0,-24.49771 19.8822,-44.37991 44.37989,-44.37991 24.49769,0 44.3799,19.8822 44.3799,44.37991 z"
       style="fill:#fbf014;fill-opacity:1;fill-rule:nonzero;stroke:#000000;stroke-width:0.4671264;stroke-miterlimit:4;stroke-opacity:1;stroke-dasharray:none"
       id="path19134"
       inkscape:connector-curvature="0" />
    <path
       d="m 245.33866,-175.81448 c 0,22.44553 -18.21668,40.66221 -40.66221,40.66221 -22.44553,0 -40.6622,-18.21668 -40.6622,-40.66221 0,-22.44554 18.21667,-40.66222 40.6622,-40.66222 22.44553,0 40.66221,18.21668 40.66221,40.66222 z"
       style="fill:#fbf014;fill-opacity:1;fill-rule:nonzero;stroke:#000000;stroke-width:0.4671264;stroke-miterlimit:4;stroke-opacity:1;stroke-dasharray:none"
       id="path19195"
       inkscape:connector-curvature="0" />
  </g>
  <g
     id="g3056"
     transform="matrix(1.5529261,0,0,1.5529261,-365.69369,-156.75595)">
    <g
       id="g24796"
       style="stroke:#000000;stroke-width:3.03274751;stroke-miterlimit:4;stroke-opacity:1;stroke-dasharray:none"
       transform="matrix(0.07678812,0,0,0.07678812,319.82171,159.80413)">
      <path
         id="path24790"
         style="fill:#0087ff;fill-opacity:1;fill-rule:evenodd;stroke:#000000;stroke-width:3.03274751;stroke-linecap:butt;stroke-linejoin:miter;stroke-miterlimit:4;stroke-opacity:1;stroke-dasharray:none"
         d="m -338.24202,-217.1562 89.53466,15.91727 -11.93796,89.53465 -75.60704,51.731132 -41.78283,-45.762152 1.98965,-73.61738 37.80352,-37.80352 z"
         inkscape:connector-curvature="0" />
      <path
         id="path23908"
         style="fill:#ffffff;fill-opacity:1;fill-rule:evenodd;stroke:#000000;stroke-width:3.03274751;stroke-linecap:butt;stroke-linejoin:miter;stroke-miterlimit:4;stroke-opacity:1;stroke-dasharray:none"
         d="m -363.24122,-151.12315 -34.92399,1.19838 c 0,0 -1.71196,-0.34241 -2.39676,-0.34241 -0.68477,0 -1.19836,0.1712 -1.19836,0.1712 l -0.51359,1.88316 -0.85599,0.51358 -0.68477,2.39675 -2.73915,1.36957 -0.17119,1.54077 -2.56796,1.71197 -3.25271,2.05433 -1.54076,-0.51358 -0.68479,-3.25272 -1.02718,-0.17119 -3.59513,0.68478 -2.56792,0.68479 -0.17119,-4.2799 -1.02717,-1.19839 0,-7.87501 1.71195,0 0.51357,-7.7038 0.85601,-1.88318 -0.34242,-1.54077 2.73915,-2.39674 1.88315,-1.36957 1.02718,-2.05436 0.17121,-2.56791 1.02717,-1.0272 -1.36957,-1.19837 -1.88316,1.02717 -2.39674,-1.54077 -0.17122,-3.25271 0.5136,-1.71197 1.88316,-1.19836 0.85598,0.51359 1.19838,-7.01906 2.91033,-1.88314 -1.36956,-4.27991 1.02716,-2.56794 -0.51357,-3.25272 7.36141,-2.73915 0.6848,-2.91033 0.68477,-3.2527 3.08153,-0.85601 2.39676,-1.36955 1.54075,4.27989 0.17121,2.22555 2.05436,-0.34238 1.19836,-2.91034 1.88316,-0.85598 0.68478,-2.56794 4.79349,-5.82068 0.856,-1.71196 3.93749,-1.71195 2.73914,-0.51357 2.56793,-2.73914 1.19839,-1.71198 -0.17121,-2.05434 1.19837,0.51358 1.88316,-2.22555 -1.36956,-2.05435 0.85597,-1.54076 -1.02718,-4.10871 -1.19836,-1.19838 0.34238,-1.19835 -1.88315,2.73912 -2.05434,-0.85598 -0.3424,-2.56793 -2.22555,0.51358 -2.05435,-0.3424 -2.39673,-3.25273 -1.36959,0.68479 0,2.22555 -1.36957,-0.85598 -1.02717,-2.73912 -2.39674,0.17117 1.02717,-3.5951 3.08152,-6.33425 0.51361,-3.08154 -3.59513,-3.08153 2.22556,-7.01904 3.42392,-3.76632 -0.1712,-3.42391 -2.22556,0.68479 2.73914,-4.27991 6.16307,-3.08154 3.25271,0.3424 5.47826,3.42393 1.88318,-1.19838 2.39675,-0.34238 3.42392,-2.56795 4.62228,3.59513 -0.17119,2.05434 3.25272,0.17119 1.36956,2.05436 1.88317,0 0.17118,-2.91034 5.82069,-2.91032 9.2446,-0.85598 7.01903,-3.42393 3.9375,2.73914 9.92936,0.51358 13.52449,-12.66851 44.32993,9.42514 -2.51314,76.20997 -45.24071,24.95755 -2.56793,-1.54075 -1.36958,1.02718 -0.68477,-0.68479 0.51359,-3.42393 -2.91034,0.51359 -0.85599,3.93751 -2.56795,0 -3.08151,-1.54076 0.34238,-1.36958 2.56795,0.34241 -0.17119,-1.36958 -1.88317,-1.02717 -2.73912,0.51358 0.17117,-1.71197 2.05436,-2.22554 -0.51359,-0.85598 -1.71194,1.88315 -2.05436,-0.85597 -1.71196,1.19838 1.71196,2.39673 -2.39674,1.36957 -0.1712,1.54077 -3.42392,-0.51359 0,1.36958 2.22555,0 -5.30708,3.93751 -1.36957,-1.54077 0.51358,-1.36958 -1.19837,0 -1.88315,1.71196 -3.25273,0.17121 0.51359,-1.02717 2.39675,-0.68481 -0.6848,-0.85596 -2.22554,0.1712 0,-2.91035 -0.85599,0.51358 -0.34239,2.56795 -1.19836,-0.5136 0.17119,1.54078 -0.17119,1.54075 0.17119,1.19839 -1.19836,0.34239 -0.34241,-0.85597 -1.71195,0.68475 -1.02717,-1.54074 c 0,0 -1.88318,0.34238 -1.54077,1.19836 0.34237,0.85598 0.68478,2.39674 0.68478,2.39674 l -3.25273,-1.02715 -1.36955,-0.85599 0,3.25272 -2.05435,0.51358 -2.73916,-2.56793 1.19839,2.73913 -3.08154,-0.1712 -1.88317,1.19837 1.54078,1.71197 1.19837,1.36958 1.36956,1.54075 -0.68478,1.36958 -1.19836,-0.68479 -2.05436,3.08154 -1.54077,0 -1.19837,2.56794 -1.19837,0.85596 0.51359,1.36956 1.02716,0.34242 -0.17118,1.54076 -1.19836,-0.3424 -2.73914,3.42392 0.51358,1.19838 1.54077,-0.1712 0.17119,4.4511 z"
         inkscape:connector-curvature="0" />
      <path
         id="Kenya"
         style="fill:#ffffff;fill-opacity:1;fill-rule:evenodd;stroke:#000000;stroke-width:3.03274751;stroke-linecap:butt;stroke-linejoin:miter;stroke-miterlimit:4;stroke-opacity:1;stroke-dasharray:none"
         d="m -302.81543,-150.46364 96.45555,52.833778 1.35471,7.315464 -3.52226,2.167538 1.08378,3.522255 3.25131,0.541884 1.08376,3.522253 37.39008,26.823314 2.70942,-1.625653 3.25131,1.354707 0.81283,-3.522253 2.16753,-2.167539 4.33509,-9.482991 -2.43849,-0.812823 1.62567,-3.522254 2.16753,0.541885 3.25133,-4.335083 0.54187,-3.793194 -2.70941,-1.8966 3.2513,1.083768 2.70942,-8.128276 3.7932,-1.083773 0.81282,-5.689778 1.8966,-1.896611 c 0,0 -2.43848,-6.773568 -0.27094,-9.212028 2.16754,-2.43851 10.8377,-2.16756 10.8377,-2.16756 l 5.41885,-5.68979 0,-2.16752 3.25132,-2.4385 -3.25132,-5.68979 6.23169,1.89659 5.14791,-1.89659 2.98037,0.27093 5.1479,-7.31544 0,-2.70944 -15.44372,-19.7788 0,-98.0812 9.21204,-8.94109 15.172783,-20.86259 -4.335082,-1.89659 -15.443721,2.16754 -3.79321,-5.41886 -1.89659,0 -1.08378,-2.98037 -2.70943,-1.62564 -25.46857,11.10864 -1.08378,4.33508 -5.96075,5.68978 -0.54187,2.70943 -1.35473,0.27095 -1.35471,-0.81283 -26.28142,-6.23168 -1.08377,2.16755 -8.94111,-0.27094 -30.61651,-22.21729 -23.03011,0 -4.60602,-1.8966 -0.27093,-2.98038 -41.45423,0 -9.48299,9.483 2.43849,10.02486 3.52225,0.54191 1.8966,4.87696 4.06415,0 -0.81284,4.60601 -0.81283,0.81283 -0.27095,5.1479 1.62566,2.98037 2.70944,1.62567 0.27093,4.33509 5.14791,2.16752 0.81283,5.6898 2.98036,2.16753 0.81282,2.4385 -2.16754,2.98035 3.52226,5.14792 -1.08376,3.52225 1.62565,4.06414 0,1.62565 -0.81282,5.14791 -2.16755,1.62565 -1.35472,3.25132 -1.62565,0.54189 0.81283,5.96073 -4.60603,0.54187 -2.16752,2.70944 -2.16754,-1.3547 -0.27094,5.68979 -2.4385,4.06414 -2.70942,0 0,2.43847 -3.25131,1.08376 -1.08377,4.60603 0,3.79321 -3.52226,2.43847 -0.81282,4.33509 1.08376,2.98037 1.89661,1.08377 1.62564,-1.08377 -0.81282,2.98037 2.98036,1.3547 1.35472,3.52226 3.25131,-1.8966 -0.54188,-2.43848 4.60601,0 5.14793,-2.43848 1.35471,2.98036 2.43848,2.16754 -0.81283,0.81283 -2.70944,-0.54187 -1.3547,1.89658 -1.89661,-0.81281 -4.60601,-0.27096 -0.5419,1.8966 2.43849,1.62565 -2.16754,1.62565 -1.62566,-1.62565 -2.16754,1.08377 -1.62565,-1.08377 -2.70943,-0.81283 0.54189,3.25131 -2.43848,0 -1.35473,4.60602 2.4385,2.43851 2.43848,1.35469 -1.89659,3.79321 -1.35471,1.35471 z"
         inkscape:connector-curvature="0" />
      <path
         id="path22083"
         style="fill:#ffffff;fill-opacity:1;fill-rule:evenodd;stroke:#000000;stroke-width:3.03274751;stroke-linecap:butt;stroke-linejoin:miter;stroke-miterlimit:4;stroke-opacity:1;stroke-dasharray:none"
         d="m -154.44736,33.04344 2.98449,-2.98449 0,-1.8653 2.98449,-0.37306 1.74095,-3.35755 0.37306,4.47673 -1.6166,1.11918 0.24871,2.61143 -2.11401,-0.12435 0.62177,2.48707 -1.11919,-0.12435 -0.12435,-1.6166 -3.97932,-0.24871 z"
         inkscape:connector-curvature="0" />
      <path
         id="path22085"
         style="fill:#ffffff;fill-opacity:1;fill-rule:evenodd;stroke:#000000;stroke-width:3.03274751;stroke-linecap:butt;stroke-linejoin:miter;stroke-miterlimit:4;stroke-opacity:1;stroke-dasharray:none"
         d="m -164.89307,-14.45966 0.12436,-5.59592 -1.11919,-0.99483 3.73061,-2.86013 0.62177,-3.35755 3.85497,-1.49225 -1.11919,3.73061 -1.49224,0.37306 -0.49741,4.47674 2.11401,2.73578 0,2.48707 1.8653,1.11918 2.48708,3.35755 0,2.61143 -1.74095,1.36789 -3.48191,-4.22802 -3.23319,0.99483 -2.11402,-4.72544 z"
         inkscape:connector-curvature="0" />
      <path
         id="path22087"
         style="fill:#ffffff;fill-opacity:1;fill-rule:evenodd;stroke:#000000;stroke-width:3.03274751;stroke-linecap:butt;stroke-linejoin:miter;stroke-miterlimit:4;stroke-opacity:1;stroke-dasharray:none"
         d="m -152.4577,-36.09721 0.74612,-3.35755 1.49225,-3.85496 -2.61143,-6.46639 2.98449,0.37306 1.11918,2.86014 1.98966,0.74612 0.24871,-2.98449 c 0,0 1.36789,-0.99483 0.87047,0.49741 -0.49741,1.49225 -1.11918,6.83946 -1.11918,6.83946 l 1.49225,3.23319 -2.23837,2.98449 -2.48707,2.48707 -2.48708,-3.35755 z"
         inkscape:connector-curvature="0" />
      <path
         id="path22081"
         style="fill:#ffffff;fill-opacity:1;fill-rule:evenodd;stroke:#000000;stroke-width:3.03274751;stroke-linecap:butt;stroke-linejoin:miter;stroke-miterlimit:4;stroke-opacity:1;stroke-dasharray:none"
         d="m -132.68546,99.82137 -11.44054,8.95346 -15.17115,5.96898 -3.73061,2.73578 -7.70993,0.24871 -5.47156,1.98966 -3.73061,1.24354 -4.22803,4.47673 -6.7151,-4.72544 -7.95863,0 -2.73578,2.98449 -0.49742,4.47673 -5.22285,2.48707 -3.2332,-0.74612 -1.98966,2.48707 -8.95346,-1.24353 -2.73578,-2.98449 -4.72544,0.74612 -6.46639,4.72544 -2.98449,-0.99483 -0.74613,-1.74095 -2.23836,0.49742 -1.98966,1.24353 -3.73061,-0.74612 0.24871,-2.98449 -2.98449,-0.99483 -3.2332,-4.47673 -4.22802,0.49741 -1.24354,2.23837 -2.98449,2.73578 -3.4819,-1.24354 -12.68408,0.24871 -3.23319,-5.96897 -2.98449,0 -3.97932,-7.70993 0.24871,-4.97415 1.49224,-1.24354 0.49742,-5.22285 -3.2332,-2.48708 0.74612,-7.95863 -1.49224,-2.23837 -0.49742,-3.4819 -5.72026,-5.72027 0.49741,-2.48707 -7.70993,-5.47157 -1.98966,0 -0.49741,4.97415 -2.73578,-0.49741 -1.98966,-2.23837 -8.45605,1.74095 -3.48191,-4.22802 -3.73061,0.49741 -3.4819,-2.73578 -4.47673,0.24871 -3.4819,-3.48191 -7.21252,0.24871 -1.74095,-4.97414 -4.72544,0.49741 -2.23837,-1.98966 -5.47156,0.49742 -0.49741,-2.98449 -6.46639,-0.49742 -3.2332,-2.48707 -0.24871,-4.47673 -4.97414,-2.23837 -4.47674,0.99483 -1.74095,-5.47156 -3.73061,-3.48191 -0.99483,-4.72544 -5.72027,-8.45605 0,-2.98448 -3.23319,-3.48191 0,-7.21251 -2.98449,-2.98449 0.24871,-3.2332 1.49224,-0.2487 -0.24871,-2.73578 -4.22802,-2.98449 -1.74096,-3.2332 -5.96897,-5.72027 -2.73578,0.99483 -2.73578,0 -5.72027,-6.9638 -0.24871,-3.48191 2.48707,-3.23319 3.2332,0 1.24354,-2.48708 -0.74613,-2.98448 -4.97414,-8.45606 0.49741,-4.22802 1.98966,-1.49224 -1.24354,-4.97415 -5.22285,-4.72544 0,-5.72027 1.24354,-3.73061 0,-1.74095 4.72544,-2.23837 2.73578,-1.49224 2.73578,-1.98966 0.49741,-2.48708 4.47674,-2.48707 -0.24871,-2.48707 4.72544,-4.22803 0.2487,-3.23319 1.74096,-4.22803 5.72027,-2.48707 -0.24871,-1.49225 4.72544,-2.48707 -0.49742,-6.21769 0.99483,-1.98965 -2.23836,-1.24354 -1.98966,0.49741 -3.2332,-1.49224 -3.4819,0.99483 -0.99483,-2.98449 3.2332,-3.73061 -1.74096,-1.49224 2.23837,-4.72544 8.45605,-1.24354 -0.24871,-6.21769 1.49225,-1.98965 -3.2332,-4.72544 0.49742,-7.70993 -2.23837,-2.73578 0.49741,-2.23837 -4.72544,-2.98449 -3.23319,-5.72027 4.97415,-0.74612 2.23836,-1.74095 29.09876,0 1.24354,2.23837 0.24871,2.73578 -0.99483,0.99483 -0.99483,3.73061 -1.24354,2.98448 -0.2487,1.49225 -0.24871,3.23319 -0.74612,3.73061 -1.24354,1.24354 0,2.98449 -1.24354,1.24354 2.48708,0.49741 -0.74613,3.4819 -0.99483,3.73062 2.23837,0.74612 4.22803,-0.49742 -2.48708,4.72544 -0.99483,3.73061 1.24354,4.72544 3.4819,-2.98449 2.73578,1.98966 -0.74612,-4.22802 1.24354,-3.4819 3.23319,1.74095 1.24354,-1.49225 -1.98966,-2.98449 3.73061,-3.23319 2.98449,4.22802 2.73578,0.49742 1.74095,3.97932 2.48708,-5.22286 0.99483,3.73061 3.23319,-0.74612 0.24871,3.97932 2.23837,3.23319 -3.97932,1.98966 0.24871,4.22803 2.48707,-0.74612 0.24871,-3.2332 3.23319,-0.99483 -1.49224,-3.2332 -0.99483,-3.4819 3.73061,-5.22285 2.73578,0.49741 2.23837,3.4819 5.47156,-0.2487 5.22285,-4.97415 6.46639,-1.98966 -1.24353,-4.47673 -1.74095,0 -2.48708,2.98449 -7.46122,-1.24354 -2.73578,-1.49224 -1.98966,1.24353 -2.23836,0.74612 -6.4664,-2.98448 0,-2.48708 -1.74095,-1.24353 2.73578,-0.99483 1.98966,2.48707 1.98966,-0.24871 2.48707,-1.24353 3.2332,2.98448 4.97415,-0.99483 0,-2.48707 -3.2332,-0.99483 0.49742,-1.98966 4.97414,-0.2487 1.24354,-1.74096 4.22803,-1.24353 -2.48708,-3.48191 0.24871,-1.98966 7.21251,1.98966 -3.23319,-3.4819 0.74612,-3.23319 4.72544,2.73578 0.24871,-1.24354 -3.73061,-2.73578 5.22285,-5.22286 97.742,53.22338 0.99483,7.46122 -3.48191,2.23837 0,3.97931 4.22803,-0.49741 0.2487,3.97932 37.30611,25.11944 2.48707,4.22803 -1.98966,2.23836 -1.74095,3.73061 -0.99483,5.72027 -1.74095,2.98449 0,4.97415 -3.23319,3.23319 -2.48708,6.21769 0,4.72544 1.98966,3.23319 -1.24354,4.97415 3.73062,3.2332 2.98448,0 7.21252,8.45605 3.73061,3.4819 1.74095,3.73061 -1.98966,4.72544 -2.48707,0.74612 -2.23837,7.70993 0.24871,5.72027 2.73578,2.73578 -0.74612,3.73061 -1.98966,4.97415 -1.49225,4.97415 1.49225,5.47156 1.98966,4.22802 1.74095,1.24354 0,3.4819 -1.49225,-0.2487 1.98966,4.72544 3.48191,1.24353 0.49741,6.96381 -1.49224,-0.24871 0.2487,1.98966 3.48191,2.73578 1.49224,7.70993 -1.74095,2.73578 0.99483,1.49225 4.47673,0.99483 1.74095,3.97931 3.48191,-1.24353 5.47156,2.98449 2.23836,3.4819 -0.2487,1.74095 z"
         inkscape:connector-curvature="0" />
    </g>
    <path
       style="fill:#ffffff;fill-rule:evenodd;stroke:#000000;stroke-width:0.28627107;stroke-miterlimit:4;stroke-dasharray:none"
       inkscape:connector-curvature="0"
       class="landxx rw"
       id="rw"
       d="m 286.15648,151.14802 c -0.1428,-0.25158 0.59815,-0.68188 0.59006,-1.01717 -0.0134,-0.58917 0.29638,-0.84468 0.88373,-1.13685 0.0727,-0.0364 0.42301,-0.22667 0.51461,-0.16556 0.12396,0.0823 0.17245,0.36665 0.37182,0.17778 0.15628,-0.14827 0.6682,-0.80109 0.95649,-0.7153 -0.13472,0.33782 0.20475,0.76419 0.38528,1.01463 0.22363,0.31291 0.45265,0.85113 0.39338,1.21041 -0.0755,0.45196 -0.37721,0.51076 -0.82446,0.36572 -0.50384,-0.16465 -0.62778,0.22806 -1.06156,-0.10054 -0.0647,0.40793 -0.0242,0.85298 -0.60084,0.95536 -0.29369,0.0521 -0.56581,0.0849 -0.71131,-0.16672 -0.15626,-0.27671 -0.57658,-0.25458 -0.60891,0.0761 -0.18322,-0.1462 -0.27212,-0.28133 -0.28829,-0.49786" />
    <path
       style="fill:#ffffff;fill-rule:evenodd;stroke:#000000;stroke-width:0.28627107;stroke-miterlimit:4;stroke-dasharray:none"
       inkscape:connector-curvature="0"
       class="landxx bi"
       id="bi"
       d="m 286.44477,151.6461 c 0.25327,-0.70031 0.69515,0.0652 0.7598,0.0717 0.90529,0.0899 1.08581,-0.16303 1.16126,-0.93646 0.49575,0.36528 0.33679,-0.16349 1.46032,0.16972 -0.1913,0.0789 -0.67089,0.52693 -0.29637,0.51285 -0.31794,0.70725 0.30984,0.73492 0.66011,0.64567 -0.21556,0.27787 0.26403,0.39457 -0.1913,0.67289 -0.28023,0.17203 -0.27213,0.0754 -0.33681,0.3851 -0.0162,0.0761 -0.34217,0.0383 -0.39606,0.13674 -0.0621,0.10954 0.19669,0.36043 0.16436,0.42984 -0.0188,0.0452 -0.15897,0.28456 -0.39607,0.43283 -0.36911,0.23244 -0.42031,0.5064 -0.81638,0.72338 -0.194,0.107 -0.39069,0.1386 -0.5658,0.13883 -0.0701,-0.20155 -0.48766,-0.95998 -0.5685,-1.2088 -0.11855,-0.35904 0.0486,-0.73076 -0.23171,-1.04253 0.0323,-0.17595 0.13202,-0.39063 -0.0322,-0.58572 -0.14551,-0.17249 -0.30985,-0.33482 -0.37452,-0.54606" />
  </g>
</svg>
